<svg viewBox="0 0 122.58 122.58" xmlns="http://www.w3.org/2000/svg" xmlns:xlink="http://www.w3.org/1999/xlink"><linearGradient id="a" gradientTransform="matrix(.99162614 -.12914175 .12914175 .99162614 -13.54 -77.3)" gradientUnits="userSpaceOnUse" x1="5.43" x2="99.61" y1="109.97" y2="178.7"><stop offset="0" stop-color="#bfffba"/><stop offset=".98" stop-color="#7fefcd"/></linearGradient><circle cx="61.29" cy="61.29" fill="url(#a)" r="61.28"/><g fill="#4c685f"><circle cx="40.38" cy="73.63" r="3.8"/><circle cx="77.86" cy="75.68" r="3.8"/><path d="m34.37 84.34a34.08 34.08 0 0 0 4.55 6.24 29.37 29.37 0 0 0 5.85 5 31.4 31.4 0 0 0 3.31 1.82 30.72 30.72 0 0 0 3.52 1.35 23.31 23.31 0 0 0 7.59.93 31.41 31.41 0 0 0 7.66-1 26.15 26.15 0 0 0 6.94-3 41.33 41.33 0 0 0 11-10.88 1.78 1.78 0 0 1 2.95 2 36.3 36.3 0 0 1 -11.81 12.32 28.14 28.14 0 0 1 -8.11 3.37 35.46 35.46 0 0 1 -8.6 1c-1.42 0-2.83-.06-4.31-.18a34.23 34.23 0 0 1 -4.36-.74 24.1 24.1 0 0 1 -8-3.69 30.09 30.09 0 0 1 -6.33-5.95 30.66 30.66 0 0 1 -4.47-7.41 1.43 1.43 0 0 1 2.56-1.25z"/></g></svg>