<svg viewBox="0 0 121.14 121.14" xmlns="http://www.w3.org/2000/svg" xmlns:xlink="http://www.w3.org/1999/xlink"><linearGradient id="a" gradientUnits="userSpaceOnUse" x1="17.62" x2="105.44" y1="24.62" y2="98.13"><stop offset="0" stop-color="#ffccaf"/><stop offset=".99" stop-color="#fa4671"/></linearGradient><circle cx="60.57" cy="60.57" fill="url(#a)" r="60.57"/><g fill="#fff"><circle cx="83.33" cy="83.26" r="3.36"/><circle cx="37.76" cy="78.73" r="3.32"/><path d="m48.93 86.84c1.9-.21 3.8-.27 5.69-.29s3.79 0 5.68.14a100.24 100.24 0 0 1 11.31 1.12 1.32 1.32 0 0 1 -.12 2.61 97.9 97.9 0 0 1 -11.36.1c-1.9-.06-3.78-.19-5.67-.36s-3.77-.42-5.65-.8a1.27 1.27 0 0 1 -1-1.5 1.28 1.28 0 0 1 1.12-1.02z"/></g></svg>