<svg viewBox="0 0 121.16 121.16" xmlns="http://www.w3.org/2000/svg" xmlns:xlink="http://www.w3.org/1999/xlink"><linearGradient id="a" gradientTransform="matrix(.83914554 .54390695 -.54390695 .83914554 42.69 -23.2)" gradientUnits="userSpaceOnUse" x1=".01" x2="121.15" y1="60.58" y2="60.58"><stop offset=".05" stop-color="#aeb6ff"/><stop offset=".98" stop-color="#8e8aff"/></linearGradient><circle cx="60.58" cy="60.58" fill="url(#a)" r="60.57"/><g fill="#fff"><circle cx="80.28" cy="80.18" r="3.36"/><circle cx="47.78" cy="74.91" r="3.32"/><path d="m81.34 93.81a19 19 0 0 1 -8.72 7.8 20 20 0 0 1 -11.73 1.39 21.66 21.66 0 0 1 -10.5-5.16 30 30 0 0 1 -4-4.13 16.13 16.13 0 0 1 -2.88-5.22 1.41 1.41 0 0 1 2.62-1v.08a15.33 15.33 0 0 0 2.87 3.93 31.23 31.23 0 0 0 3.79 3.38 24.09 24.09 0 0 0 4.21 2.6 19.35 19.35 0 0 0 4.61 1.52 19.55 19.55 0 0 0 4.83.22 18.26 18.26 0 0 0 4.7-1.1 17.14 17.14 0 0 0 7.63-5.92 1.53 1.53 0 0 1 2.56 1.66z"/></g></svg>