<svg viewBox="0 0 122.57 122.57" xmlns="http://www.w3.org/2000/svg" xmlns:xlink="http://www.w3.org/1999/xlink"><linearGradient id="a" gradientUnits="userSpaceOnUse" x1="17.99" x2="96.9" y1="24.97" y2="91.16"><stop offset=".05" stop-color="#fbf7a5"/><stop offset=".98" stop-color="#ffc876"/></linearGradient><circle cx="61.28" cy="61.28" fill="url(#a)" r="61.28"/><path d="m82 90.25a6.91 6.91 0 0 1 -1.39 4.5 12.45 12.45 0 0 1 -2.94 2.83 24.42 24.42 0 0 1 -6.78 3.21 43.14 43.14 0 0 1 -14.33 1.7 56.32 56.32 0 0 1 -14.09-2.42 26.16 26.16 0 0 1 -6.72-3.2 13.93 13.93 0 0 1 -2.94-2.68 8.43 8.43 0 0 1 -1.82-4 7.32 7.32 0 0 1 .69-4.46 8 8 0 0 1 3.05-3.14 19 19 0 0 1 7.27-2.08 71.54 71.54 0 0 1 14.12.11c4.56.4 9.13.53 13.84 1a24.18 24.18 0 0 1 7.25 1.73 8.59 8.59 0 0 1 3.37 2.74 8.4 8.4 0 0 1 1.42 4.16zm-3.84.28a4.41 4.41 0 0 0 -2.53-4 18.67 18.67 0 0 0 -6.03-1.63c-4.44-.59-9.09-.73-13.69-1.14a68.61 68.61 0 0 0 -13.45.07 15.68 15.68 0 0 0 -5.87 1.79 4.36 4.36 0 0 0 -1.69 1.76 3.81 3.81 0 0 0 -.29 2.26c.25 1.52 1.63 3 3.32 4.09a24 24 0 0 0 5.77 2.59 53 53 0 0 0 13.07 2.08 39.45 39.45 0 0 0 13-1.45 20.79 20.79 0 0 0 5.69-2.59c1.65-1.1 2.85-2.69 2.74-3.83z" fill="#4c685f"/></svg>