<svg fill="none" height="200" viewBox="0 0 200 200" width="200" xmlns="http://www.w3.org/2000/svg" xmlns:xlink="http://www.w3.org/1999/xlink"><linearGradient id="a" gradientUnits="userSpaceOnUse" x1="32.6398" x2="176.107" y1="42.182" y2="166.392"><stop offset=".05" stop-color="#d7deff"/><stop offset=".81" stop-color="#8e8aff"/></linearGradient><linearGradient id="b" gradientUnits="userSpaceOnUse" x1="67.8931" x2="168.986" y1="99.0284" y2="186.555"><stop offset=".05" stop-color="#f8f8ff"/><stop offset=".98" stop-color="#f8f8ff" stop-opacity=".4"/></linearGradient><linearGradient id="c" gradientUnits="userSpaceOnUse" x1="40.7223" x2="134.027" y1="117.163" y2="210.4"><stop offset=".05" stop-color="#aeb6ff"/><stop offset=".823003" stop-color="#8e8aff"/></linearGradient><path d="m99.9962 191c51.9128 0 93.9958-40.742 93.9958-91 0-50.2579-42.083-91-93.9958-91-51.9127 0-93.9962 40.7421-93.9962 91 0 50.258 42.0835 91 93.9962 91z" fill="url(#a)" opacity=".4"/><path d="m102.632 105.004c-28.7071 9.357-61.0713 15.462-84.6068 19.127 10.6574 34.047 43.3213 58.836 81.9709 58.836 42.1229 0 77.1229-29.441 84.2919-68.224-20.693-10.191-51.397-19.6013-81.656-9.739z" fill="url(#b)"/><path d="m85.8195 99.6633c-31.6419-16.2582-56.0918-13.1672-71.0753-7.7044-.2612 2.6472-.4073 5.3556-.4073 8.041 0 45.7981 38.35 82.9281 85.6592 82.9281 42.1689 0 77.1999-29.509 84.3149-68.353-18.342 7.291-49.446 10.29-98.4915-14.9117z" fill="url(#c)"/><path d="m73.1105 102.555c2.6098 0 4.7255-2.106 4.7255-4.7049 0-2.5987-2.1157-4.7053-4.7255-4.7053-2.6099 0-4.7256 2.1066-4.7256 4.7053 0 2.5989 2.1157 4.7049 4.7256 4.7049z" fill="#4c685f"/><path d="m71.274 97.1998c.5984 0 1.0835-.483 1.0835-1.0788s-.4851-1.0788-1.0835-1.0788c-.5983 0-1.0834.483-1.0834 1.0788s.4851 1.0788 1.0834 1.0788z" fill="#fff"/><path d="m121.142 107.368c2.61 0 4.726-2.107 4.726-4.706 0-2.598-2.116-4.7048-4.726-4.7048s-4.726 2.1068-4.726 4.7048c0 2.599 2.116 4.706 4.726 4.706z" fill="#4c685f"/><path d="m95.8853 121.239c-.4134-.003-.8208-.1-1.191-.283-7.023-3.481-9.3051-17.513-9.5433-19.127-.0599-.392-.031-.791.0847-1.17s.3152-.7269.5838-1.0186c.27-.2896.6006-.5163.9684-.6644s.7639-.2139 1.16-.1925l18.5791 1.1018c.406.0243.801.1407 1.155.3397s.657.475.888.809c.23.333.381.714.441 1.115.061.4.028.808-.094 1.194-.492 1.531-4.979 14.996-12.0789 17.697-.303.123-.6257.19-.9528.199zm-4.8177-16.916c1.0142 4.261 2.7969 9.074 4.9791 11.132 2.405-1.821 4.9023-6.35 6.5853-10.451z" fill="#4c685f"/><path d="m119.513 102.188c.688 0 1.245-.555 1.245-1.239 0-.685-.557-1.2398-1.245-1.2398-.687 0-1.245.5548-1.245 1.2398 0 .684.558 1.239 1.245 1.239z" fill="#fff"/></svg>