<svg fill="none" height="170" viewBox="0 0 170 170" width="170" xmlns="http://www.w3.org/2000/svg" xmlns:xlink="http://www.w3.org/1999/xlink"><linearGradient id="a" gradientUnits="userSpaceOnUse" x1="36.872" x2="140.725" y1="30.4329" y2="108.327"><stop offset="0" stop-color="#ffccaf"/><stop offset=".99" stop-color="#fa4671"/></linearGradient><clipPath id="b"><path d="m0 0h170v170h-170z"/></clipPath><g clip-path="url(#b)"><path d="m78.3756 167.705h-6.9927c-.3496.001-.6944-.081-1.0063-.239s-.582-.388-.7882-.67c-.2061-.283-.3425-.61-.398-.955s-.0284-.699.0789-1.032c6.4656-20.173 1.8813-40.59 1.8303-40.8-.1323-.574-.031-1.177.2814-1.676.3124-.5.8106-.855 1.3847-.987s1.1771-.031 1.6766.281c.4995.313.8544.811.9867 1.385.1927.839 4.4823 19.964-1.0711 40.233h4.0177c.5892 0 1.1542.234 1.5708.651s.6505.982.6505 1.571-.2339 1.154-.6505 1.57c-.4166.417-.9816.651-1.5708.651z" fill="#ff94a8"/><path d="m117.056 161.245c-.57.002-1.119-.216-1.533-.608-.414-.393-.66-.93-.688-1.5 0-.085-.459-9.038-1.048-13.951-.391-3.276-7.203-14.263-11.402-20.4-.182-.24-.313-.515-.385-.807-.073-.292-.086-.596-.037-.893.049-.298.157-.582.319-.836s.373-.472.622-.642.53-.287.825-.345c.296-.057.6-.054.895.009.294.064.572.186.818.361.245.174.453.397.61.654 10.919 16.002 12.03 21.465 12.143 22.394.403 3.344.731 8.319.918 11.424l3.967-1.195c.282-.096.58-.133.877-.111s.586.104.851.24.499.325.69.553c.19.229.333.494.419.779s.114.584.083.88c-.032.296-.123.582-.268.843-.144.26-.34.488-.574.671-.235.183-.504.318-.792.395l-6.658 2.017c-.213.054-.432.077-.652.068z" fill="#ff94a8"/><path d="m136.346 117.209h-.272c-.585-.072-1.117-.373-1.479-.838-.363-.464-.526-1.053-.454-1.638 3.446-27.8857-1.541-49.7534-1.592-49.9687-.11-.5645.003-1.1499.315-1.6329.313-.4829.8-.8258 1.36-.9565.561-.1307 1.15-.0389 1.644.2559s.854.7697 1.005 1.3248c.215.918 5.224 22.8084 1.671 51.5214-.07.534-.331 1.024-.736 1.38-.404.355-.924.551-1.462.552z" fill="#ff94a8"/><path d="m87.1005 129.26c29.7205-1.386 52.4885-30.9446 50.8525-66.0208-1.636-35.0761-27.055-62.387362-56.7761-61.00135-29.7209 1.386-52.4885 30.94445-50.8528 66.02055 1.6358 35.0766 27.0554 62.3876 56.7764 61.0016z" fill="url(#a)"/><path d="m41.3383 107.145c-8.5 0-13.7699-2.136-15.6172-6.375-1.7454-4.006-.3968-8.9076 4.0062-14.5686 1.9704-2.4893 4.1755-4.7835 6.5847-6.851.2186-.2171.4799-.3863.7673-.4969.2875-.1106.5948-.1603.9024-.1458.3077.0145.609.0929.8848.23.2757.1372.52.3302.7172.5668.1971.2366.3429.5117.4281.8077s.1079.6065.0667.9117-.1453.5986-.306.8613c-.1607.2628-.3742.4893-.6271.6652-3.128 2.618-11.5657 11.2086-9.367 16.2576 2.4876 5.701 20.4623 3.887 32.4303.7764.5703-.1503 1.177-.0679 1.6866.2296.5095.297.8802.784 1.0305 1.354.1503.571.0679 1.177-.2291 1.687-.297.509-.7843.88-1.3547 1.03-5.3347 1.325-10.7588 2.258-16.2293 2.794-2.0702.181-3.9951.27-5.7744.266z" fill="#e56b82"/><g fill="#fff"><path d="m79.339 67.082c1.6274 0 2.9467-1.3193 2.9467-2.9467s-1.3193-2.9466-2.9467-2.9466-2.9467 1.3192-2.9467 2.9466 1.3193 2.9467 2.9467 2.9467z"/><path d="m109.282 64.141c1.627 0 2.946-1.3192 2.946-2.9466 0-1.6275-1.319-2.9467-2.946-2.9467-1.628 0-2.947 1.3192-2.947 2.9467 0 1.6274 1.319 2.9466 2.947 2.9466z"/><path d="m90.8933 70.5387c-.4186-.0079-.8189-.1731-1.1213-.4628-.3023-.2897-.4845-.6827-.5102-1.1006s.1068-.8302.3713-1.1548c.2646-.3246.6416-.5377 1.0562-.5968l11.9907-1.5187c.436-.0456.874.0794 1.22.3487s.575.6621.639 1.0963c.028.2167.014.4369-.043.6479s-.156.4086-.29.5815c-.133.1728-.3.3174-.49.4254s-.4.1773-.617.2039l-11.9961 1.5186z"/><path d="m57.626 37.0685c2.6666-2.6667 3.2228-6.434 1.2422-8.4146s-5.748-1.4245-8.4146 1.2421c-2.6667 2.6667-3.2228 6.434-1.2422 8.4146s5.748 1.4245 8.4146-1.2421z" opacity=".2"/></g></g></svg>