<svg fill="none" height="170" viewBox="0 0 170 170" width="170" xmlns="http://www.w3.org/2000/svg" xmlns:xlink="http://www.w3.org/1999/xlink"><linearGradient id="a" gradientUnits="userSpaceOnUse" x1="44.4777" x2="132.26" y1="37.264" y2="112.682"><stop offset=".05" stop-color="#fbf7a5"/><stop offset=".98" stop-color="#ffc876"/></linearGradient><g fill="#ffeb81"><path d="m21.794 69.2297c-.9407 0-1.9267 0-2.941-.0907-7.4347-.4873-12.16634-2.8333-14.07034-6.9473-1.7-3.621-1.82468-9.6787 6.92464-17.969 3.1844-2.9818 6.6561-5.6411 10.3644-7.939.526-.3134 1.1549-.4049 1.7485-.2546.5935.1504 1.1029.5304 1.4163 1.0564.3133.526.4049 1.155.2545 1.7485-.1503.5935-.5303 1.103-1.0563 1.4164-5.0263 3.009-18.65472 13.1466-15.49272 19.9976 2.40832 5.2077 14.89202 4.5787 19.07402 3.9667.6049-.0909 1.2212.0622 1.7132.4256.492.3635.8195.9075.9105 1.5124.0909.6049-.0622 1.2212-.4257 1.7132-.3634.492-.9074.8196-1.5124.9105-2.2898.3055-4.5975.457-6.9076.4533z"/><path d="m88.3716 169.416c-.484 0-.9555-.154-1.3477-.437-.3923-.284-.6854-.684-.8377-1.143-.1524-.46-.1562-.956-.0111-1.417.1451-.462.4318-.867.8196-1.156l4.2103-3.134c1.0143-22.718 12.467-41.004 12.977-41.786.335-.498.852-.845 1.44-.967.588-.123 1.2-.012 1.707.31s.868.829 1.008 1.413c.139.584.045 1.199-.262 1.715-.159.249-11.668 18.7-12.3027 40.573-.0108.347-.1.688-.2609.996s-.3895.576-.6685.783l-5.1 3.791c-.3947.299-.8763.46-1.3713.459z"/><path d="m145.741 134.702h-.136c-.303-.016-.599-.091-.873-.222-.273-.131-.518-.315-.72-.541-.203-.226-.358-.489-.458-.776-.1-.286-.143-.589-.125-.892.833-15.232 0-49.124 0-49.464-.021-.3105.021-.6221.124-.9159.102-.2939.263-.5639.473-.7939s.464-.4151.747-.5443.589-.1998.9-.2074c.312-.0077.621.0477.91.1628s.552.2876.773.507.395.4812.512.7696c.116.2885.174.5976.168.9088 0 .34.844 34.4133 0 49.8323-.032.588-.288 1.14-.714 1.545-.427.405-.993.631-1.581.631z"/><path d="m77.8202 157.749c-.6117 0-1.1982-.243-1.6307-.676-.4325-.432-.6755-1.019-.6755-1.631v-6.001c-4.2897.074-13.4301-.051-20.8704-2.108-.6659-.186-1.2847-.511-1.8158-.954-.531-.443-.9622-.993-1.2652-1.615s-.471-1.3-.4928-1.991c-.0217-.691.1032-1.379.3665-2.019 3.0884-7.542 15.8667-18.071 16.405-18.518.475-.365 1.073-.53 1.6678-.462.5947.069 1.1397.366 1.5194.829.3797.462.5646 1.055.5155 1.652-.0491.596-.3285 1.15-.7788 1.545-3.4453 2.833-12.8632 11.333-15.0619 16.7-.0187.04-.0285.083-.0285.127s.0098.088.0285.128c.0166.032.0397.061.068.085.0282.023.061.041.0963.051 9.1629 2.533 21.6919 1.881 21.8166 1.87.3127-.017.6257.03.9197.138s.5629.274.7904.489c.2275.216.4087.475.5326.763.124.287.188.597.1883.91v8.381c0 .61-.2413 1.195-.6714 1.627-.43.432-1.0139.677-1.6236.68z"/></g><path d="m86.377 129.194c34.692 0 62.815-25.043 62.815-55.9353 0-30.8925-28.123-55.9357-62.815-55.9357-34.6918 0-62.815 25.0432-62.815 55.9357 0 30.8923 28.1232 55.9353 62.815 55.9353z" fill="url(#a)"/><path d="m80.886 78.3757c-.2668.0027-.5304-.0575-.7697-.1756-.2392-.1182-.4472-.2909-.6073-.5044l-3.2244-4.2387-4.2387 3.2244c-.1804.1373-.3861.2377-.6054.2955s-.4478.0718-.6725.0413c-.2247-.0306-.4412-.105-.6371-.2192s-.3674-.2658-.5047-.4463c-.2773-.3644-.3983-.8241-.3367-1.2779s.301-.8645.6654-1.1418l5.61-4.2726c.1791-.1408.3846-.2441.6044-.3039s.4493-.0748.675-.0442c.2257.0307.443.1064.6389.2226.1959.1163.3663.2707.5014.4541l4.2727 5.61c.2771.3656.3982.826.3366 1.2806-.0616.4545-.3009.8662-.6654 1.1448-.299.2294-.6656.353-1.0425.3513z" fill="#4c685f"/><path d="m54.663 45.042c2.6666-2.6666 3.2228-6.4339 1.2421-8.4145-1.9806-1.9807-5.7479-1.4245-8.4145 1.2421-2.6667 2.6666-3.2228 6.434-1.2422 8.4146s5.748 1.4245 8.4146-1.2422z" fill="#fff" opacity=".5"/></svg>