<svg fill="none" height="170" viewBox="0 0 170 170" width="170" xmlns="http://www.w3.org/2000/svg" xmlns:xlink="http://www.w3.org/1999/xlink"><linearGradient id="a" gradientUnits="userSpaceOnUse" x1="36.2667" x2="136.408" y1="45.373" y2="118.314"><stop offset=".05" stop-color="#aeb6ff"/><stop offset=".98" stop-color="#8e8aff"/></linearGradient><path d="m85 139.876c33.518 0 60.69-26.418 60.69-59.007 0-32.5887-27.172-59.007-60.69-59.007-33.5182 0-60.69 26.4183-60.69 59.007 0 32.589 27.1718 59.007 60.69 59.007z" fill="url(#a)"/><g fill="#c7c6ff"><path d="m55.0346 132.175c-1.5564-.861-3.0675-1.785-4.5333-2.771-.3173 5.213.1644 15.527 5.763 31.11-1.7 2.539-2.4083 3.655-2.4423 3.706-.1764.256-.2989.546-.3601.851-.0613.305-.0601.619.0036.924s.1886.593.367.848.4066.471.671.635c.2643.164.5592.273.8668.32s.6215.031.9228-.047c.3013-.077.5837-.216.83-.406.2464-.19.4515-.428.6032-.7 0 0 .867-1.388 2.9977-4.533.2064-.303.3377-.65.3831-1.014.0453-.364.0033-.733-.1225-1.077-4.879-13.186-5.916-22.463-5.95-27.846z"/><path d="m118.354 160.616c3.224-15.867 2.323-26.067 1.281-31.303-1.36.926-2.76 1.793-4.199 2.601.793 5.208 1.207 14.626-1.825 28.9-.073.36-.06.732.038 1.086.099.354.28.679.529.949 2.561 2.788 3.609 4.023 3.621 4.034.189.247.426.453.698.605.271.153.57.249.879.282.31.034.623.004.92-.087.298-.091.574-.241.811-.441.238-.201.433-.448.573-.726.139-.278.221-.581.24-.892.02-.31-.025-.621-.129-.914-.105-.293-.268-.562-.479-.79-.051-.04-.901-1.043-2.958-3.304z"/><path d="m136.006 42.1203c.198 1.0427.527 2.4707.935 4.2671.408 1.7963.901 3.9666 1.399 6.3183 4.833 8.5995 7.37 18.2987 7.367 28.1633v.0623c1.071-12.189-2.369-27.2793-4.267-35.5639-.397-1.7567-.714-3.145-.901-4.1084-1.094-5.746-3.032-18.0993-3.049-18.224-.026-.3151-.117-.6213-.267-.8996s-.356-.5227-.605-.718c-.249-.1952-.535-.3371-.841-.4167s-.625-.0954-.937-.0462c-.313.0492-.611.1623-.878.3321-.267.1699-.496.3928-.672.6551-.177.2622-.298.558-.355.869-.057.3109-.05.6304.022.9383-.011.1247 1.938 12.5347 3.049 18.3713z"/><path d="m32.0223 52.0936c.6687-3.3603 1.36-6.3976 1.9154-8.823.4136-1.802.7366-3.2243.935-4.267 1.1333-5.8253 3.0599-18.2466 3.0769-18.377.0764-.5931-.0816-1.1925-.4406-1.6708-.359-.4782-.8904-.7975-1.4812-.8898s-1.1943.0496-1.6821.3956c-.4877.3459-.8212.8686-.9294 1.4567 0 .1247-1.9606 12.4667-3.0543 18.224-.1813.9633-.4987 2.3517-.901 4.1027-1.6037 7.0266-4.3237 18.9379-4.471 29.8293 1.0882-7.0379 3.4726-13.8127 7.0323-19.9807z"/></g><path d="m67.643 82.5293c1.6869 0 3.0543-1.3675 3.0543-3.0543 0-1.6869-1.3674-3.0543-3.0543-3.0543s-3.0543 1.3674-3.0543 3.0543c0 1.6868 1.3674 3.0543 3.0543 3.0543z" fill="#fff"/><path d="m98.651 85.646c1.687 0 3.054-1.3675 3.054-3.0543 0-1.6869-1.367-3.0543-3.054-3.0543-1.6869 0-3.0543 1.3674-3.0543 3.0543 0 1.6868 1.3674 3.0543 3.0543 3.0543z" fill="#fff"/><path d="m82.3253 94.6504c-.2674-.0008-.531-.0629-.7706-.1814-4.5334-2.2666-6.0067-11.3333-6.1654-12.3873-.0421-.2548-.0257-.5158.0481-.7632.0738-.2475.203-.4749.3777-.665.1748-.19.3906-.3378.631-.432.2405-.0942.4991-.1325.7565-.1118l11.9964.714c.2662.0104.5263.0833.7592.2128.2329.1294.4321.3118.5816.5324.1494.2206.2449.4732.2787.7375.0339.2643.0051.5328-.0839.7839-.3116.986-3.213 9.7184-7.7973 11.4694-.1963.0691-.4041.0999-.612.0907zm-3.859-11.6904c.782 3.3207 2.1703 7.0607 3.859 8.6643 1.8587-1.411 3.7967-4.9413 5.1-8.1316z" fill="#fff"/><path d="m59.3579 47.3257c2.6667-2.6667 3.2227-6.434 1.2421-8.4146s-5.7479-1.4245-8.4145 1.2422c-2.6666 2.6666-3.2228 6.4339-1.2422 8.4145s5.748 1.4245 8.4146-1.2421z" fill="#fff" opacity=".2"/></svg>