<svg fill="none" height="200" viewBox="0 0 200 200" width="200" xmlns="http://www.w3.org/2000/svg" xmlns:xlink="http://www.w3.org/1999/xlink"><linearGradient id="a"><stop offset="0" stop-color="#bfffba"/><stop offset=".98" stop-color="#7fefcd"/></linearGradient><linearGradient id="b" gradientUnits="userSpaceOnUse" x1="27.5484" x2="180.4" xlink:href="#a" y1="53.8422" y2="153.121"/><linearGradient id="c" gradientUnits="userSpaceOnUse" x1="170.678" x2="73.4878" y1="138.258" y2="134.438"><stop offset="0" stop-color="#f3ffdf"/><stop offset=".98" stop-color="#c8ffd3"/></linearGradient><linearGradient id="d" gradientUnits="userSpaceOnUse" x1="35.9028" x2="128.024" xlink:href="#a" y1="102.505" y2="195.424"/><path d="m98.5 186.008c53.295 0 96.5-38.506 96.5-86.004 0-47.4988-43.205-86.004-96.5-86.004-53.2955 0-96.5 38.5052-96.5 86.004 0 47.498 43.2045 86.004 96.5 86.004z" fill="url(#b)" opacity=".3"/><path d="m98.5 175.294c42.736 0 78.055-28.293 83.672-65.006-8.368-6.242-19.157-11.5802-32.322-12.6846-29.373-2.4542-70.8753 18.6216-124.3476 17.1336-3.5327-.1-6.8201-.184-9.8853-.253 7.5634 34.619 41.8016 60.81 82.8829 60.81z" fill="url(#c)"/><path d="m179.099 122.529c-11.808 3.834-34.928 3.942-74.714-21.751-39.0811-25.2547-70.2924-22.0719-88.6606-15.7524-1.1119 4.9124-1.6723 9.9336-1.6705 14.9705 0 41.5679 37.8091 75.2669 84.4461 75.2669 37.847.031 69.856-22.172 80.599-52.734z" fill="url(#d)"/><g fill="#4c685f"><path d="m116.125 114.33c-.512 0-1.013-.149-1.441-.429l-9.088-5.906c-.292-.19-.545-.435-.742-.723-.197-.287-.336-.61-.409-.951-.073-.342-.077-.694-.014-1.037s.194-.67.383-.962c.19-.293.435-.545.723-.743.287-.197.61-.337.951-.409.341-.073.692-.078 1.035-.014.343.063.67.194.962.383l6.897 4.456 4.452-6.902c.189-.293.435-.545.722-.743.287-.197.61-.336.951-.4091.341-.0726.693-.0773 1.036-.0139.342.0634.669.194.961.384.293.189.545.435.742.722.198.288.337.611.409.952.073.342.078.694.014 1.037-.063.343-.193.67-.383.962l-5.901 9.096c-.239.384-.572.7-.967.919-.396.219-.841.333-1.293.331z"/><path d="m87.4883 103.639c2.5562 0 4.6284-2.074 4.6284-4.6322 0-2.5584-2.0722-4.6323-4.6284-4.6323s-4.6285 2.0739-4.6285 4.6323c0 2.5582 2.0723 4.6322 4.6285 4.6322z"/><path d="m134.508 99.0069c2.557 0 4.629-2.074 4.629-4.6323 0-2.5584-2.072-4.6323-4.629-4.6323-2.556 0-4.628 2.0739-4.628 4.6323 0 2.5583 2.072 4.6323 4.628 4.6323z"/></g><path d="m132.478 94.666c.685 0 1.241-.5562 1.241-1.2424s-.556-1.2424-1.241-1.2424c-.686 0-1.242.5562-1.242 1.2424s.556 1.2424 1.242 1.2424z" fill="#fff"/><path d="m85.7411 99.0068c.6856 0 1.2414-.5562 1.2414-1.2424s-.5558-1.2424-1.2414-1.2424-1.2414.5562-1.2414 1.2424.5558 1.2424 1.2414 1.2424z" fill="#fff"/></svg>