<svg fill="none" height="200" viewBox="0 0 200 200" width="200" xmlns="http://www.w3.org/2000/svg" xmlns:xlink="http://www.w3.org/1999/xlink"><linearGradient id="a"><stop offset=".05" stop-color="#fbf7a5"/><stop offset=".98" stop-color="#ffc876"/></linearGradient><linearGradient id="b" gradientUnits="userSpaceOnUse" x1="35.1387" x2="170.746" xlink:href="#a" y1="44.8331" y2="160.581"/><linearGradient id="c" gradientUnits="userSpaceOnUse" x1="237.025" x2="74.8114" y1="106.96" y2="149.765"><stop offset=".05" stop-color="#fffbe9"/><stop offset=".98" stop-color="#fff4c5"/></linearGradient><linearGradient id="d" gradientUnits="userSpaceOnUse" x1="39.1173" x2="91.4062" xlink:href="#a" y1="106.666" y2="190.14"/><path d="m99.5 187c53.295 0 96.5-38.727 96.5-86.5 0-47.7726-43.205-86.5-96.5-86.5-53.2955 0-96.5 38.7274-96.5 86.5 0 47.773 43.2045 86.5 96.5 86.5z" fill="url(#b)" opacity=".3"/><path d="m184.408 111.824c-10.761-6.959-25.843-13.8556-43.144-13.6638-34.615.3759-60.779 23.5138-76.8217 27.6188-13.4438 3.452-28.5338 6.774-42.5112 7.672 13.7716 25.999 43.3267 43.982 77.5765 43.982 43.1054.008 78.7884-28.462 84.9004-65.609z" fill="url(#c)"/><path d="m183.448 116.58c-17.331 5.371-47.061 3.644-80.176-15.451-46.6948-26.9357-77.0273-4.1043-88.985 8.539 5.0529 38.167 41.2766 67.773 85.2206 67.773 41.2464 0 75.6944-26.092 83.9404-60.861z" fill="url(#d)"/><path d="m91.0633 108.41c-.4086.001-.8119-.094-1.1782-.276-.3663-.183-.6856-.448-.9329-.775l-4.9538-6.552-6.5085 4.987c-.5631.39-1.2539.546-1.9289.437-.6749-.109-1.2823-.475-1.6961-1.023-.4138-.547-.6021-1.235-.526-1.918.0762-.684.4109-1.312.9348-1.754l8.6196-6.6058c.5605-.4277 1.2664-.6146 1.9634-.5197s1.3283.4638 1.7558 1.0261l6.5619 8.6844c.2998.396.4837.868.5309 1.364.0473.495-.044.994-.2636 1.44-.2195.446-.5586.822-.9789 1.084-.4202.262-.905.401-1.3995.401z" fill="#4c685f"/></svg>