<svg fill="none" height="170" viewBox="0 0 170 170" width="170" xmlns="http://www.w3.org/2000/svg" xmlns:xlink="http://www.w3.org/1999/xlink"><linearGradient id="a" gradientUnits="userSpaceOnUse" x1="38.6693" x2="137.581" y1="47.668" y2="111.956"><stop offset="0" stop-color="#bfffba"/><stop offset=".98" stop-color="#7fefcd"/></linearGradient><g fill="#b4ffc6"><path d="m77.3614 169.416h-7.2194c-.3628.006-.7216-.076-1.0463-.238s-.6056-.399-.8194-.693c-.2138-.293-.3541-.633-.409-.992-.055-.358-.0231-.725.0931-1.069 6.6583-20.779 1.9379-41.933 1.8926-42.126-.0673-.293-.0763-.596-.0263-.893s.1579-.581.3176-.836.368-.476.6132-.65c.2451-.174.5222-.299.8154-.366.2932-.068.5968-.076.8934-.026.2967.05.5805.157.8355.317.2549.16.4759.368.6504.613.1744.245.2988.522.3662.816.1983.867 4.6296 20.615-1.1334 41.559h4.148c.6079 0 1.191.242 1.6209.671.4298.43.6713 1.013.6713 1.621s-.2415 1.191-.6713 1.621c-.4299.43-1.013.671-1.6209.671z"/><path d="m111.186 157.8h-.136c-.302-.015-.597-.089-.869-.219-.273-.13-.516-.313-.717-.539-.2-.225-.354-.488-.451-.774-.098-.285-.137-.587-.117-.888l.261-4.414c.079-1.317.561-2.577 1.38-3.611s1.935-1.791 3.199-2.169c4.482-1.343 11.775-2.176 12.081-2.21h.108c2.34-.159 8.981-1.224 11.543-4.211.365-.401.641-.875.809-1.391s.224-1.061.165-1.601c-.634-7.497-17.396-9.548-23.233-9.678-.608-.007-1.188-.255-1.613-.69-.425-.434-.66-1.02-.654-1.628.007-.608.255-1.188.69-1.613.434-.425 1.02-.66 1.628-.654h.051c4.336.158 8.647.741 12.869 1.74 6.426 1.587 14.212 4.981 14.818 12.138.106 1.147-.023 2.304-.379 3.4-.355 1.096-.93 2.108-1.689 2.975-1.881 2.182-4.964 3.819-9.163 4.868-1.803.45-3.639.757-5.491.918-.612.068-7.316.861-11.231 2.034-.364.109-.686.326-.923.623-.237.296-.378.658-.403 1.037l-.261 4.415c-.032.58-.286 1.126-.708 1.524-.423.399-.983.62-1.564.618z"/><path d="m19.5613 119.051c-2.194-.003-4.3785-.289-6.4996-.85-5.23037-1.439-8.50007-4.533-9.38407-8.902-1.462-7.033 5.03767-12.501 10.76667-15.867 3.7627-2.1644 7.7297-3.9523 11.8434-5.338.5786-.1856 1.2072-.1337 1.7476.1441.5404.2779.9482.7591 1.1338 1.3377s.1338 1.2073-.1441 1.7477-.7591.9482-1.3377 1.1338c-5.542 1.785-21.02329 8.5457-19.49895 15.8947 1.343 6.489 11.71295 6.098 11.81495 6.092.6072-.029 1.2011.184 1.6512.592.4501.409.7194.98.7487 1.587s-.1838 1.201-.5924 1.651-.9793.719-1.5865.749c-.0566.022-.2833.028-.663.028z"/><path d="m151.498 114.795c-.374 0-.6 0-.634 0-.301-.014-.596-.088-.868-.216-.272-.129-.516-.309-.719-.532-.202-.223-.359-.484-.46-.767-.102-.283-.147-.584-.132-.884.014-.301.088-.596.216-.868.129-.272.31-.517.532-.719.223-.202.484-.359.767-.46.283-.102.584-.147.885-.132.102 0 10.466.396 11.815-6.092 1.524-7.3667-13.957-14.11-19.505-15.895-.286-.0923-.552-.2401-.781-.435-.23-.1949-.419-.433-.556-.7009-.137-.2678-.22-.5601-.245-.8601-.024-.3.011-.6018.103-.8883s.24-.5521.435-.7814c.195-.2294.433-.4182.701-.5555s.56-.2206.86-.245.602.0106.888.1028c4.111 1.3859 8.076 3.172 11.838 5.3324 5.712 3.349 12.206 8.823 10.767 15.867-.913 4.386-4.16 7.463-9.384 8.896-2.129.559-4.322.839-6.523.833z"/></g><path d="m84.6033 133.15c34.5037 0 62.4747-24.907 62.4747-55.63 0-30.7234-27.971-55.6297-62.4747-55.6297-34.504 0-62.475 24.9063-62.475 55.6297 0 30.723 27.971 55.63 62.475 55.63z" fill="url(#a)"/><path d="m96.0161 86.7963c-.3321.0008-.6572-.0957-.9351-.2776l-5.8876-3.8194c-.3825-.2487-.6505-.6392-.7451-1.0855-.0946-.4464-.008-.912.2407-1.2945.2488-.3824.6392-.6505 1.0856-.7451.4463-.0945.9119-.0079 1.2944.2408l4.4427 2.8843 2.8787-4.4426c.2479-.3825.6377-.6509 1.0835-.746s.9111-.0092 1.2941.2388c.382.248.65.6377.745 1.0836.096.4458.01.9111-.238 1.2936l-3.8197 5.8876c-.1546.2411-.3676.4391-.6192.5758s-.5337.2077-.82.2062z" fill="#4c685f"/><path d="m77.4747 79.8773c1.6555 0 2.9976-1.3421 2.9976-2.9976 0-1.6556-1.3421-2.9977-2.9976-2.9977-1.6556 0-2.9977 1.3421-2.9977 2.9977 0 1.6555 1.3421 2.9976 2.9977 2.9976z" fill="#4c685f"/><path d="m107.916 76.8853c1.656 0 2.998-1.3421 2.998-2.9976 0-1.6556-1.342-2.9977-2.998-2.9977s-2.998 1.3421-2.998 2.9977c0 1.6555 1.342 2.9976 2.998 2.9976z" fill="#4c685f"/><path d="m52.8537 49.9941c2.6666-2.6666 3.2227-6.4339 1.2421-8.4145s-5.7479-1.4245-8.4145 1.2421c-2.6667 2.6666-3.2228 6.434-1.2422 8.4146s5.748 1.4245 8.4146-1.2422z" fill="#fff" opacity=".5"/></svg>