<svg fill="none" height="200" viewBox="0 0 200 200" width="200" xmlns="http://www.w3.org/2000/svg" xmlns:xlink="http://www.w3.org/1999/xlink"><linearGradient id="a" gradientUnits="userSpaceOnUse" x1="27.2605" x2="187.331" y1="45.3813" y2="165.282"><stop offset="0" stop-color="#ffccaf"/><stop offset=".99" stop-color="#fa4671"/></linearGradient><linearGradient id="b" gradientUnits="userSpaceOnUse" x1="165.987" x2="104.15" y1="74.8852" y2="128.602"><stop offset="0" stop-color="#ffebeb"/><stop offset="1" stop-color="#ffd4d4"/></linearGradient><linearGradient id="c" gradientUnits="userSpaceOnUse" x1="47.8501" x2="129.537" y1="98.0585" y2="188.29"><stop offset="0" stop-color="#ffccaf"/><stop offset=".98" stop-color="#fa4671"/></linearGradient><clipPath id="d"><path d="m17 2h166v196h-166z"/></clipPath><g clip-path="url(#d)"><path d="m104.618 197.834c45.768-2.137 80.829-47.71 78.311-101.7899-2.519-54.0799-41.664-96.187852-87.4328-94.05079-45.7688 2.13706-80.8299 47.70989-78.311 101.78969 2.5188 54.08 41.6636 96.188 87.4328 94.051z" fill="url(#a)" opacity=".3"/><path d="m173.497 97.8774c-7.937-4.1915-17.777-7.9394-27.501-7.8323-30.832.3518-64.4447 28.7289-85.0935 29.2489-9.6713.245-21.3898-.214-32.5277-.91 7.9142 40.492 39.4564 70.093 75.6812 68.403 40.175-1.874 71.053-41.525 69.441-88.9096z" fill="url(#b)"/><path d="m173.512 98.3899c-19.358 16.5371-34.965 13.4471-51.503 8.8191-14.225-3.977-31.4129-30.1515-59.9682-31.7424-18.3341-1.025-29.6554 9.1785-35.3925 16.6208-.2398 3.7738-.273 7.558-.0993 11.3356 2.2307 47.927 36.9204 85.253 77.485 83.372 40.075-1.874 70.853-41.273 69.478-88.4051z" fill="url(#c)"/><g fill="#4c685f"><path d="m92.6587 101.885c2.5061 0 4.5377-2.0337 4.5377-4.5429 0-2.5093-2.0316-4.5434-4.5377-4.5434s-4.5377 2.0341-4.5377 4.5434c0 2.5092 2.0316 4.5429 4.5377 4.5429z"/><path d="m138.761 97.3497c2.506 0 4.538-2.0341 4.538-4.5434 0-2.5092-2.032-4.5434-4.538-4.5434s-4.537 2.0342-4.537 4.5434c0 2.5093 2.031 4.5434 4.537 4.5434z"/><path d="m110.443 107.209c-.658.009-1.294-.235-1.777-.683-.482-.448-.774-1.065-.814-1.722-.04-.658.174-1.305.598-1.809.424-.503 1.026-.824 1.68-.895l18.464-2.3409c.658-.0522 1.31.1515 1.822.5689.512.417.844 1.016.927 1.672.082.655-.09 1.318-.483 1.849-.392.532-.974.891-1.625 1.004l-18.464 2.341z"/></g><path d="m90.6267 97.0514c.6835 0 1.2376-.5547 1.2376-1.2391 0-.6843-.5541-1.2391-1.2376-1.2391s-1.2375.5548-1.2375 1.2391c0 .6844.554 1.2391 1.2375 1.2391z" fill="#fff"/><path d="m136.745 93.0281c.683 0 1.237-.5547 1.237-1.2391 0-.6843-.554-1.2391-1.237-1.2391-.684 0-1.238.5548-1.238 1.2391 0 .6844.554 1.2391 1.238 1.2391z" fill="#fff"/></g></svg>