<svg fill="none" height="60" viewBox="0 0 60 60" width="60" xmlns="http://www.w3.org/2000/svg" xmlns:xlink="http://www.w3.org/1999/xlink"><linearGradient id="a" gradientUnits="userSpaceOnUse" x1="11.7188" x2="60.0535" y1="15.0208" y2="54.63"><stop offset="0" stop-color="#ffccaf"/><stop offset=".99" stop-color="#fa4671"/></linearGradient><path d="m31.3856 59.5179c13.8261-.6448 24.4175-14.3945 23.6566-30.7108s-12.586-29.020563-26.4121-28.375797c-13.826.644767-24.41746 14.394397-23.65657 30.710697.7609 16.3163 12.58597 29.0206 26.41207 28.3759z" fill="url(#a)"/><g fill="#fff"><path d="m27.7823 30.57c.7571 0 1.3708-.6137 1.3708-1.3708 0-.757-.6137-1.3707-1.3708-1.3707s-1.3708.6137-1.3708 1.3707c0 .7571.6137 1.3708 1.3708 1.3708z"/><path d="m41.7115 29.1992c.7571 0 1.3708-.6137 1.3708-1.3707 0-.7571-.6137-1.3708-1.3708-1.3708-.757 0-1.3707.6137-1.3707 1.3708 0 .757.6137 1.3707 1.3707 1.3707z"/><path d="m33.1546 32.1762c-.1987.0028-.3909-.071-.5366-.2061-.1457-.1352-.2338-.3212-.246-.5196-.0122-.1983.0525-.3938.1806-.5457s.3098-.2487.5074-.2702l5.5777-.7061c.1988-.0158.396.0457.5507.1715.1546.1259.2548.3066.2798.5044.025.1979-.0273.3977-.1458.5581-.1186.1603-.2944.2688-.4909.3029l-5.5777.7108c-.033.0023-.0661.0023-.0992 0z"/><path d="m18.0383 16.9891c1.2067-1.2067 1.458-2.9119.5613-3.8086s-2.6018-.6454-3.8086.5614c-1.2067 1.2067-1.458 2.9118-.5613 3.8085s2.6019.6454 3.8086-.5613z" opacity=".2"/></g></svg>