<svg fill="none" height="60" viewBox="0 0 60 60" width="60" xmlns="http://www.w3.org/2000/svg" xmlns:xlink="http://www.w3.org/1999/xlink"><linearGradient id="a" gradientUnits="userSpaceOnUse" x1="10.2231" x2="48.4869" y1="13.3454" y2="45.5677"><stop offset=".05" stop-color="#fbf7a5"/><stop offset=".98" stop-color="#ffc876"/></linearGradient><path d="m30 56.0192c16.1378 0 29.22-11.6492 29.22-26.0192s-13.0822-26.01923-29.22-26.01923-29.220001 11.64923-29.220001 26.01923 13.082201 26.0192 29.220001 26.0192z" fill="url(#a)"/><path d="m27.4431 32.3792c-.1238.0003-.2459-.0281-.3568-.083-.1109-.0548-.2076-.1346-.2825-.2331l-1.5-1.9708-1.9707 1.5c-.1705.1173-.3797.1645-.5841.1317-.2044-.0327-.3883-.143-.5136-.3077-.1253-.1648-.1823-.3715-.1592-.5772.023-.2057.1244-.3946.283-.5276l2.61-1.9869c.1697-.1287.3835-.1849.5945-.1563.2111.0285.4022.1395.5317.3086l1.9869 2.6123c.0908.1191.1465.2612.1608.4102.0143.1491-.0134.2992-.0798.4333-.0665.1342-.1692.2471-.2964.326-.1273.0789-.2741.1206-.4238.1205z" fill="#4c685f"/><path d="m17.1377 16.9897c1.2067-1.2067 1.458-2.9119.5613-3.8086s-2.6018-.6454-3.8085.5613c-1.2068 1.2068-1.4581 2.9119-.5614 3.8086s2.6019.6454 3.8086-.5613z" fill="#fff" opacity=".5"/></svg>