<svg fill="none" height="40" viewBox="0 0 40 40" width="40" xmlns="http://www.w3.org/2000/svg"><path d="m20 38.2985c10.394 0 18.82-8.1925 18.82-18.2985 0-10.10596-8.426-18.29846-18.82-18.29846-10.39401 0-18.82001 8.1925-18.82001 18.29846 0 10.106 8.426 18.2985 18.82001 18.2985z" fill="#bdc7ff"/><g fill="#4c685f"><path d="m14.6169 20.5139c.5226 0 .9462-.4236.9462-.9462 0-.5225-.4236-.9461-.9462-.9461-.5225 0-.9461.4236-.9461.9461 0 .5226.4236.9462.9461.9462z"/><path d="m24.2338 21.4815c.5226 0 .9462-.4236.9462-.9461 0-.5226-.4236-.9462-.9462-.9462-.5225 0-.9461.4236-.9461.9462 0 .5225.4236.9461.9461.9461z"/><path d="m19.1769 24.2692c-.0827 0-.1642-.0189-.2384-.0553-1.4062-.7-1.8631-3.5216-1.9108-3.8462-.0122-.0787-.0066-.1591.0166-.2353s.0633-.1462.1172-.2047.12-.1043.1937-.1341.1531-.0428.2325-.0382l3.72.2215c.0812.0049.1603.0283.2311.0683.0709.04.1317.0956.1778.1627.0461.067.0764.1437.0884.2242.0121.0804.0056.1626-.0188.2402-.0985.3077-.997 3.0154-2.4185 3.5585-.0608.0242-.1254.0372-.1908.0384zm-.9646-3.4015c.2031.8585.56 1.8246.9969 2.24.4816-.3662.9816-1.2769 1.3185-2.1015z"/></g></svg>