<svg fill="none" height="60" viewBox="0 0 60 60" width="60" xmlns="http://www.w3.org/2000/svg" xmlns:xlink="http://www.w3.org/1999/xlink"><linearGradient id="a" gradientUnits="userSpaceOnUse" x1=".604614" x2="59.3954" y1="30" y2="30"><stop offset="0" stop-color="#bfffba"/><stop offset=".98" stop-color="#7fefcd"/></linearGradient><path d="m30 56.1738c16.2346 0 29.3954-11.7184 29.3954-26.1738s-13.1608-26.17384-29.3954-26.17384-29.395386 11.71844-29.395386 26.17384 13.160786 26.1738 29.395386 26.1738z" fill="url(#a)"/><path d="m35.37 34.3638c-.1565-.0004-.3096-.0461-.4408-.1315l-2.7692-1.7977c-.1799-.1166-.3062-.2999-.351-.5096-.0448-.2096-.0044-.4285.1122-.6085.1165-.1799.2999-.3062.5095-.3509.2097-.0448.4286-.0045.6085.1121l2.0908 1.3569 1.3569-2.0769c.0578-.0891.1325-.166.2199-.2262s.1859-.1026.2897-.1248.211-.0237.3154-.0045c.1044.0193.204.0589.2931.1166.0891.0578.166.1325.2262.2199s.1026.1859.1248.2897.0237.211.0044.3154c-.0192.1044-.0588.204-.1165.2931l-1.7977 2.7692c-.0747.1106-.1754.2011-.2934.2635-.1179.0624-.2494.0947-.3828.0942z" fill="#4c685f"/><path d="m26.6446 31.1077c.7787 0 1.41-.6313 1.41-1.41s-.6313-1.41-1.41-1.41-1.41.6313-1.41 1.41.6313 1.41 1.41 1.41z" fill="#4c685f"/><path d="m26.1092 29.6977c.195 0 .3531-.1581.3531-.3531s-.1581-.3531-.3531-.3531-.353.1581-.353.3531.158.3531.353.3531z" fill="#fff"/><path d="m40.9685 29.6977c.7787 0 1.41-.6313 1.41-1.41s-.6313-1.41-1.41-1.41c-.7788 0-1.41.6313-1.41 1.41s.6312 1.41 1.41 1.41z" fill="#4c685f"/><g fill="#fff"><path d="m16.9491 16.9891c1.2067-1.2068 1.4581-2.9119.5614-3.8086s-2.6019-.6454-3.8086.5613c-1.2068 1.2067-1.4581 2.9119-.5614 3.8086s2.6019.6454 3.8086-.5613z" opacity=".5"/><path d="m40.5138 28.2877c.195 0 .3531-.1581.3531-.3531s-.1581-.3531-.3531-.3531-.353.1581-.353.3531.158.3531.353.3531z"/></g></svg>