<svg fill="none" height="60" viewBox="0 0 60 60" width="60" xmlns="http://www.w3.org/2000/svg" xmlns:xlink="http://www.w3.org/1999/xlink"><linearGradient id="a" gradientUnits="userSpaceOnUse" x1="11.3585" x2="54.9946" y1="13.9408" y2="51.5354"><stop offset=".05" stop-color="#aeb6ff"/><stop offset=".98" stop-color="#8e8aff"/></linearGradient><path d="m30 57.4477c15.591 0 28.23-12.2888 28.23-27.4477s-12.639-27.44769-28.23-27.44769-28.23 12.28879-28.23 27.44769 12.639 27.4477 28.23 27.4477z" fill="url(#a)"/><g fill="#fff"><path d="m15.8443 16.9908c1.2067-1.2067 1.458-2.9119.5613-3.8086s-2.6019-.6453-3.8086.5614-1.458 2.9119-.5613 3.8086 2.6018.6453 3.8086-.5614z" opacity=".2"/><path d="m21.9254 30.7708c.7838 0 1.4192-.6354 1.4192-1.4193 0-.7838-.6354-1.4192-1.4192-1.4192s-1.4193.6354-1.4193 1.4192c0 .7839.6355 1.4193 1.4193 1.4193z"/><path d="m36.3508 32.2223c.7838 0 1.4192-.6354 1.4192-1.4192s-.6354-1.4192-1.4192-1.4192c-.7839 0-1.4193.6354-1.4193 1.4192s.6354 1.4192 1.4193 1.4192z"/><path d="m28.7654 36.4062c-.1242-.0009-.2465-.0301-.3577-.0854-2.1092-1.05-2.7946-5.2823-2.8662-5.7692-.018-.1181-.0093-.2386.0255-.3528.0347-.1143.0946-.2193.1753-.3073.0811-.0873.1804-.1557.2909-.2004.1104-.0446.2294-.0645.3483-.058l5.58.3323c.1256.0074.2476.0443.3563.1076.1086.0633.2008.1514.2691.257.0682.1002.1129.2145.1309.3343.0179.1199.0087.2422-.027.358-.1477.4616-1.4954 4.5208-3.6277 5.3354-.0954.0345-.1963.0509-.2977.0485zm-1.7931-5.4393c.3623 1.5439 1.0085 3.2839 1.7931 4.0293.8654-.6554 1.7677-2.3077 2.3723-3.78z"/></g></svg>