<svg fill="none" height="40" viewBox="0 0 40 40" width="40" xmlns="http://www.w3.org/2000/svg"><path d="m20 37.4492c10.8231 0 19.5969-7.8122 19.5969-17.4492 0-9.6369-8.7738-17.44922-19.5969-17.44922-10.82308 0-19.596924 7.81232-19.596924 17.44922 0 9.637 8.773844 17.4492 19.596924 17.4492z" fill="#b4ffc6"/><g fill="#4c685f"><path d="m23.58 22.9077c-.1042.0002-.2063-.0297-.2938-.0862l-1.8462-1.1984c-.0594-.0385-.1106-.0883-.1508-.1466-.0401-.0583-.0684-.1239-.0832-.1931s-.0158-.1407-.003-.2103c.0129-.0696.0393-.136.0778-.1954s.0883-.1106.1466-.1508c.0582-.0401.1239-.0684.1931-.0832s.1406-.0158.2103-.003c.0696.0129.136.0393.1954.0778l1.3938.9046.9046-1.3939c.0811-.1125.2024-.1896.3387-.2151.1364-.0256.2774.0023.3937.0779s.1991.193.2312.328c.032.135.0109.2771-.059.3969l-1.1984 1.8462c-.049.0749-.1158.1365-.1945.1792s-.1668.0652-.2563.0654z"/><path d="m17.7631 20.7385c.5191 0 .94-.4209.94-.94 0-.5192-.4209-.94-.94-.94-.5192 0-.94.4208-.94.94 0 .5191.4208.94.94.94z"/><path d="m27.3123 19.7985c.5192 0 .94-.4209.94-.94 0-.5192-.4208-.94-.94-.94-.5191 0-.94.4208-.94.94 0 .5191.4209.94.94.94z"/></g></svg>