<svg fill="none" height="40" viewBox="0 0 40 40" width="40" xmlns="http://www.w3.org/2000/svg"><path d="m20 37.3461c10.7585 0 19.48-7.7661 19.48-17.3461s-8.7215-17.34616-19.48-17.34616c-10.75851 0-19.48 7.76616-19.48 17.34616s8.72149 17.3461 19.48 17.3461z" fill="#ffeb81"/><path d="m18.2954 21.5861c-.0827.0002-.1642-.019-.2382-.0558-.0739-.0369-.1383-.0904-.188-.1565l-1-1.3138-1.3138 1c-.113.0861-.2556.1238-.3964.1047-.1408-.019-.2683-.0932-.3544-.2062-.0861-.1131-.1238-.2557-.1047-.3965.019-.1407.0932-.2682.2062-.3543l1.74-1.3231c.056-.0427.1198-.0739.1878-.0919.0681-.018.139-.0224.2087-.0129.0697.0094.1369.0325.1977.0679s.114.0825.1566.1385l1.3246 1.74c.061.0793.0985.1742.1083.2738s-.0086.2-.0529.2897c-.0444.0897-.1131.1652-.1982.2178-.0851.0527-.1832.0805-.2833.0802z" fill="#4c685f"/></svg>