<svg fill="none" height="40" viewBox="0 0 40 40" width="40" xmlns="http://www.w3.org/2000/svg"><path d="m20.9216 39.6797c9.2174-.4298 16.2783-9.5963 15.7711-20.4738-.5073-10.87756-8.3907-19.34709-17.6081-18.917246-9.21734.429844-16.27829 9.596286-15.77102 20.473846.50726 10.8775 8.39062 19.347 17.60802 18.9172z" fill="#ff94a8"/><g fill="#4c685f"><path d="m18.5215 20.38c.5047 0 .9139-.4091.9139-.9138s-.4092-.9139-.9139-.9139-.9138.4092-.9138.9139.4091.9138.9138.9138z"/><path d="m27.8077 19.4662c.5047 0 .9139-.4092.9139-.9139s-.4092-.9138-.9139-.9138-.9138.4091-.9138.9138.4091.9139.9138.9139z"/><path d="m22.1031 21.4508c-.1325.0018-.2606-.0474-.3578-.1374-.0971-.0901-.1559-.2142-.164-.3464s.035-.2625.1204-.3638.2066-.1658.3383-.1801l3.7184-.4708c.1326-.0105.264.0305.3672.1144.1031.0839.1699.2043.1865.3362.0167.1319-.0182.2652-.0972.3721s-.1962.1792-.3272.2019l-3.7185.4708z"/></g></svg>