<svg fill="none" height="15" viewBox="0 0 13 15" width="13" xmlns="http://www.w3.org/2000/svg" xmlns:xlink="http://www.w3.org/1999/xlink"><linearGradient id="a"><stop offset=".05" stop-color="#fbf7a5"/><stop offset=".98" stop-color="#ffc876"/></linearGradient><linearGradient id="b" gradientUnits="userSpaceOnUse" x1="1.90821" x2="10.9854" xlink:href="#a" y1="2.94039" y2="9.79875"/><linearGradient id="c" gradientUnits="userSpaceOnUse" x1="4.81432" x2="8.54277" xlink:href="#a" y1="5.42182" y2="8.03473"/><path d="m6.5 14.4322c-.32947.0023-.65369-.0826-.93969-.2462l-4.620619-2.67c-.285559-.1649-.522729-.402-.687669-.6875-.1649405-.2855-.25185234-.6094-.25201992-.93912v-5.33998c-.00049134-.32986.08614332-.65401.25114892-.93964.165006-.28563.402538-.52261.68854-.68697l4.620619-2.669999c.28548-.1655857.60966-.252791.93969-.252791s.65421.0872053.93969.252791l4.62061 2.669999c.286.16436.5235.40134.6885.68697.1651.28563.2517.60978.2512.93964v5.33998c-.0002.32972-.0871.65362-.252.93912-.165.2855-.4021.5226-.6877.6875l-4.62061 2.67c-.286.1636-.61022.2485-.93969.2462zm0-13.26565c-.12537-.0001-.24846.03347-.35642.09722l-4.62064 2.66998c-.10857.06192-.19876.15153-.26138.25968-.06262.10816-.09543.231-.09507.35597v5.33998c.0003.12482.03339.24742.09594.35542.06255.1081.15239.1978.26051.2602l4.62064 2.67c.10898.0607.23166.0926.35642.0926s.24744-.0319.35642-.0926l4.62068-2.67c.1081-.0624.1979-.1521.2605-.2602.0625-.108.0956-.2306.0959-.35542v-5.33998c.0004-.12497-.0324-.24781-.0951-.35597-.0626-.10815-.1528-.19776-.2613-.25968l-4.62068-2.66998c-.10796-.06375-.23105-.09732-.35642-.09722z" fill="url(#b)"/><path d="m4.07031 9.90245v-5.36591c0-.09281.03688-.18182.10251-.24745s.15464-.10249.24745-.10249h2.25522c.35995-.00705.71934.03215 1.06931.11664.25894.06249.50324.17475.71933.33052.17958.13091.32061.30774.40828.51196.08491.21665.12674.44779.12313.68046.00011.13392-.01954.26713-.05832.39531-.0394.12842-.10079.24903-.18146.35643-.09022.11712-.19981.21794-.32403.2981-.14561.09791-.30222.1784-.4666.23979.337.06021.64712.22319.88784.4666.19506.2364.29653.53619.28514.84247.00062.24751-.05014.49245-.14906.71934-.10233.22254-.25285.41955-.44067.57677-.20826.17739-.45097.30981-.71287.38881-.31462.0979-.6426.146-.97208.1426h-2.44316c-.04596 0-.09147-.0091-.13393-.0266-.04246-.0176-.08103-.0434-.11352-.0759-.0325-.0325-.05828-.0711-.07587-.1135-.01758-.0425-.02664-.08799-.02664-.13395zm1.29611-3.16251h1.23779c.14103-.0001.28185-.01094.42123-.03241.11134-.02189.21851-.06126.31755-.11664.08473-.0605.15364-.14053.20089-.2333.04792-.11477.07005-.23867.06481-.36292.00206-.12296-.01543-.24545-.05183-.36291-.03495-.08927-.09313-.16758-.16851-.22682-.08367-.06479-.18131-.10917-.28514-.12962-.13497-.02203-.27153-.03285-.40828-.03239h-1.29611zm0 .93968v1.50997h1.49701c.15425.00343.30788-.02072.45365-.07129.10461-.04022.19956-.10205.27866-.18145.06454-.0749.11109-.16358.13608-.25923.02607-.0928.03916-.18875.03888-.28514-.00087-.10102-.01613-.2014-.04534-.29811-.02922-.08723-.08058-.16539-.14906-.22682-.08582-.0641-.18238-.11237-.28515-.14257-.14423-.0346-.29242-.04986-.44067-.04536z" fill="url(#c)"/></svg>